HIERARCHY
ROOT Hips
{
	OFFSET 0.000000 0.000000 0.000000 
	CHANNELS 6 Xposition Yposition Zposition Zrotation Yrotation Xrotation
	JOINT LeftUpLeg
	{
		OFFSET 1.363060 -1.794630 0.839290 
		CHANNELS 3 Zrotation Yrotation Xrotation
		JOINT LeftLeg
		{
			OFFSET 2.448110 -6.726130 0.000000 
			CHANNELS 3 Zrotation Yrotation Xrotation
			JOINT LeftFoot
			{
				OFFSET 2.562200 -7.039590 0.000000 
				CHANNELS 3 Zrotation Yrotation Xrotation
				JOINT LeftToeBase
				{
					OFFSET 0.157640 -0.433110 2.322550 
					CHANNELS 3 Zrotation Yrotation Xrotation
					End Site
					{
						OFFSET 0.000000 0.000000 0.000000 
					}
				}
			}
		}
	}
	JOINT RightUpLeg
	{
		OFFSET -1.305520 -1.794630 0.839290 
		CHANNELS 3 Zrotation Yrotation Xrotation
		JOINT RightLeg
		{
			OFFSET -2.542530 -6.985550 0.000000 
			CHANNELS 3 Zrotation Yrotation Xrotation
			JOINT RightFoot
			{
				OFFSET -2.568260 -7.056230 0.000000 
				CHANNELS 3 Zrotation Yrotation Xrotation
				JOINT RightToeBase
				{
					OFFSET -0.164730 -0.452590 2.363150 
					CHANNELS 3 Zrotation Yrotation Xrotation
					End Site
					{
						OFFSET 0.000000 0.000000 0.000000 
					}
				}
			}
		}
	}
	JOINT Spine
	{
		OFFSET 0.028270 2.035590 -0.193380 
		CHANNELS 3 Zrotation Yrotation Xrotation
		JOINT Spine1
		{
			OFFSET 0.056720 2.048850 -0.042750 
			CHANNELS 3 Zrotation Yrotation Xrotation
			JOINT Neck1
			{
				OFFSET -0.054170 1.746240 0.172020 
				CHANNELS 3 Zrotation Yrotation Xrotation
				JOINT Head
				{
					OFFSET 0.104070 1.761360 -0.123970 
					CHANNELS 3 Zrotation Yrotation Xrotation
					End Site
					{
						OFFSET 0.000000 0.000000 0.000000 
					}
				}
			}
			JOINT LeftArm
			{
				OFFSET 3.362410 1.200890 -0.311210 
				CHANNELS 3 Zrotation Yrotation Xrotation
				JOINT LeftForeArm
				{
					OFFSET 4.983000 -0.000000 -0.000000 
					CHANNELS 3 Zrotation Yrotation Xrotation
					JOINT LeftHand
					{
						OFFSET 3.483560 -0.000000 -0.000000 
						CHANNELS 3 Zrotation Yrotation Xrotation
						JOINT LeftHandIndex1
						{
							OFFSET 0.715260 -0.000000 -0.000000 
							CHANNELS 3 Zrotation Yrotation Xrotation
							End Site
							{
								OFFSET 0.000000 0.000000 0.000000 
							}
						}
					}
				}
			}
			JOINT RightArm
			{
				OFFSET -3.136600 1.374050 -0.404650 
				CHANNELS 3 Zrotation Yrotation Xrotation
				JOINT RightForeArm
				{
					OFFSET -5.241900 -0.000000 -0.000000 
					CHANNELS 3 Zrotation Yrotation Xrotation
					JOINT RightHand
					{
						OFFSET -3.444170 -0.000000 -0.000000 
						CHANNELS 3 Zrotation Yrotation Xrotation
						JOINT RightHandIndex1
						{
							OFFSET -0.622530 -0.000000 -0.000000 
							CHANNELS 3 Zrotation Yrotation Xrotation
							End Site
							{
								OFFSET 0.000000 0.000000 0.000000 
							}
						}
					}
				}
			}
		}
	}
}
MOTION
Frames: 16
Frame Time: 0.041667
7.407815 17.491260 42.082233 -179.359238 -24.000385 -167.328024 -6.508894 1.956203 -18.364293 4.528524 15.092120 40.044978 -4.455864 20.247205 19.559362 3.414300 -11.337300 -33.425900 20.132095 6.675513 -13.050183 1.967275 -9.049156 20.746621 -5.496233 15.298707 7.802652 -0.027600 1.071500 -2.945600 0.300660 3.626609 -4.144527 -1.749898 0.704314 -8.777242 10.644702 -14.503165 5.558822 24.102700 -7.499000 2.191700 -82.245570 20.934508 28.860285 35.786511 -40.010432 -16.932242 0.671179 -1.087187 -29.505731 -7.125000 0.000000 0.000000 72.078292 -29.531931 44.070284 -27.891708 40.237242 -12.661063 -0.312531 1.595578 4.325765 7.125000 0.000000 0.000000 
7.399745 17.497340 42.057249 -179.420839 -23.461463 -167.375185 -6.608637 1.705895 -18.484383 4.747847 15.330366 40.839256 -4.412533 20.173292 19.585002 3.433400 -11.365600 -33.522900 20.056442 6.842001 -12.747588 1.975348 -8.973758 20.562723 -5.558537 15.596159 7.383663 -0.054100 1.500500 -4.127200 0.250114 3.747865 -4.149207 -1.961049 0.717353 -8.914716 10.676443 -14.883835 5.198802 24.172800 -7.582100 1.857200 -82.227574 21.808392 28.779095 37.825655 -41.327172 -18.583902 0.714979 -1.139308 -30.181455 -7.125000 0.000000 0.000000 71.775900 -30.569974 44.676137 -28.876095 41.108699 -13.395418 -0.350881 1.620776 4.064155 7.125000 0.000000 0.000000 
7.390901 17.503641 42.039671 -179.497879 -23.040353 -167.352649 -6.717587 1.380907 -18.746932 4.971968 15.588864 41.697399 -4.299427 19.903138 19.683726 3.540400 -11.522400 -34.062600 19.945747 6.791173 -12.648812 2.018436 -8.881132 20.416489 -5.616603 16.093302 8.125774 -0.013200 0.742500 -2.040600 0.265793 3.641521 -4.128428 -1.986463 0.670712 -8.838008 10.710482 -15.292606 4.893307 24.248000 -7.652600 1.850400 -82.624969 22.239139 28.232827 39.947381 -42.560904 -20.329086 0.750173 -1.186432 -30.943211 -7.125000 0.000000 0.000000 70.948217 -31.002061 45.621487 -29.740344 41.824529 -14.046509 -0.375357 1.656690 3.847260 7.125000 0.000000 0.000000 
7.387474 17.503863 42.017451 -179.426350 -22.529033 -167.478062 -6.664226 1.123715 -18.890484 5.286414 15.847082 42.526502 -4.181402 20.137834 20.669699 2.984100 -10.669300 -31.172400 20.039285 7.086859 -12.328824 2.039860 -8.825979 20.285338 -5.619319 16.167406 8.133534 -0.012900 0.734500 -2.018500 0.270939 3.615264 -4.130087 -2.052231 0.637763 -8.953467 10.756180 -15.602650 4.591147 24.328300 -7.707000 1.656700 -82.852224 22.824311 27.770560 41.866901 -43.605752 -21.948521 0.766894 -1.225829 -31.937051 -7.125000 0.000000 0.000000 70.404004 -31.570728 46.294244 -30.336795 42.331804 -14.511528 -0.389738 1.688414 3.643618 7.125000 0.000000 0.000000 
7.381393 17.503752 41.997220 -179.401936 -22.021743 -167.571439 -6.676461 0.872276 -19.085151 5.567027 16.104166 43.424910 -4.043970 20.000518 21.131894 2.771100 -10.314900 -30.002500 20.069846 7.296367 -12.068347 2.056598 -8.778359 20.192557 -5.639426 16.359562 8.224485 -0.008900 0.608800 -1.673000 0.270694 3.597052 -4.127695 -2.140427 0.609246 -9.037717 10.802350 -15.948130 4.287511 24.405900 -7.774300 1.493500 -83.098538 23.388268 27.325079 43.907922 -44.639354 -23.707818 0.785499 -1.269127 -32.828080 -7.125000 0.000000 0.000000 69.807309 -32.115480 46.999520 -30.994370 42.874965 -15.029100 -0.407495 1.719463 3.383128 7.125000 0.000000 0.000000 
7.375755 17.500325 41.978427 -179.354409 -21.508120 -167.684708 -6.669703 0.626006 -19.298300 5.857340 16.364030 44.369484 -3.879211 19.756676 21.582395 2.569400 -9.963100 -28.857200 20.136143 7.542815 -11.795780 2.066747 -8.747516 20.135342 -5.648025 16.477959 8.245594 -0.007200 0.549300 -1.509300 0.275401 3.574032 -4.125329 -2.217232 0.580028 -9.130058 10.855044 -16.279307 3.997999 24.493000 -7.841700 1.336700 -83.363237 23.905984 26.847915 45.914495 -45.580039 -25.470407 0.797985 -1.310171 -33.736557 -7.125000 0.000000 0.000000 69.206591 -32.572051 47.660505 -31.536916 43.321766 -15.467345 -0.421711 1.749522 3.085263 7.125000 0.000000 0.000000 
7.370338 17.493581 41.960739 -179.282438 -20.985291 -167.822395 -6.644316 0.386467 -19.518499 6.150968 16.621178 45.346198 -3.697366 19.406351 21.974766 2.392700 -9.640200 -27.819200 20.239186 7.837876 -11.504535 2.067505 -8.737366 20.119703 -5.647205 16.520477 8.139949 -0.008800 0.607000 -1.667900 0.281231 3.560087 -4.124893 -2.295591 0.553502 -9.245751 10.911441 -16.596463 3.722411 24.585700 -7.911600 1.172100 -83.623152 24.398579 26.370201 47.866299 -46.429913 -27.215430 0.806075 -1.349274 -34.626833 -7.125000 0.000000 0.000000 68.634982 -32.971964 48.250950 -31.963931 43.678207 -15.823919 -0.433045 1.777630 2.742958 7.125000 0.000000 0.000000 
7.365142 17.483190 41.944378 -179.196153 -20.460930 -167.977071 -6.607653 0.140333 -19.752897 6.436112 16.874832 46.363336 -3.489313 18.848453 22.215051 2.277900 -9.422400 -27.125700 20.369823 8.165423 -11.207833 2.059058 -8.749224 20.153331 -5.640015 16.512751 7.947443 -0.012800 0.730700 -2.008100 0.293470 3.538243 -4.122270 -2.352186 0.527698 -9.361726 10.969613 -16.895134 3.459124 24.677300 -7.976300 1.011000 -83.908596 24.822797 25.863042 49.733580 -47.185887 -28.911150 0.811132 -1.385503 -35.468586 -7.125000 0.000000 0.000000 68.055677 -33.267442 48.796146 -32.269059 43.940980 -16.092686 -0.442158 1.804484 2.361349 7.125000 0.000000 0.000000 
7.359726 17.469703 41.928790 -179.097323 -19.924307 -168.146867 -6.562570 -0.107989 -19.990385 6.707685 17.120584 47.401895 -3.256536 18.090711 22.315385 2.181000 -9.233300 -26.527800 20.521067 8.527938 -10.912592 2.041563 -8.785255 20.243378 -5.631590 16.494353 7.692973 -0.018700 0.881800 -2.423800 0.311742 3.514989 -4.112787 -2.384842 0.508236 -9.451724 11.029193 -17.189830 3.204092 24.765200 -8.038700 0.860600 -84.218957 25.153580 25.332401 51.481245 -47.847009 -30.520686 0.814358 -1.418282 -36.236645 -7.125000 0.000000 0.000000 67.470376 -33.440190 49.284144 -32.446170 44.108666 -16.268301 -0.449794 1.829669 1.976576 7.125000 0.000000 0.000000 
7.354088 17.453341 41.913755 -178.978877 -19.379090 -168.341390 -6.498315 -0.363725 -20.221629 6.955490 17.352584 48.446780 -2.979206 17.062783 22.283469 2.118900 -9.109400 -26.138000 20.704033 8.940731 -10.614645 2.015323 -8.848518 20.397966 -5.619188 16.458096 7.406418 -0.024400 1.009200 -2.774100 0.336585 3.488357 -4.099562 -2.393601 0.492487 -9.535860 11.087750 -17.470540 2.957955 24.844700 -8.095400 0.713700 -84.549829 25.407075 24.783745 53.093822 -48.419450 -32.023592 0.816239 -1.447259 -36.927669 -7.125000 0.000000 0.000000 66.887544 -33.504511 49.716031 -32.498427 44.184949 -16.352498 -0.456550 1.854151 1.603106 7.125000 0.000000 0.000000 
7.347897 17.434216 41.898389 -178.843117 -18.813693 -168.558209 -6.422393 -0.620099 -20.440786 7.169290 17.566324 49.481973 -2.646815 15.716345 22.097338 2.099800 -9.070900 -26.017400 20.911514 9.406058 -10.319027 1.979418 -8.941423 20.624920 -5.606652 16.430930 7.100251 -0.027800 1.075500 -2.956700 0.364053 3.471363 -4.081222 -2.389200 0.485095 -9.609482 11.147927 -17.755455 2.709990 24.920900 -8.152300 0.559700 -84.875232 25.595274 24.247679 54.556983 -48.911014 -33.401972 0.817190 -1.472707 -37.536957 -7.125000 0.000000 0.000000 66.332572 -33.477338 50.072815 -32.427468 44.173859 -16.346521 -0.462607 1.878282 1.273094 7.125000 0.000000 0.000000 
7.341595 17.412549 41.883023 -178.686875 -18.244058 -168.798169 -6.327968 -0.884851 -20.648540 7.349209 17.761414 50.495132 -2.253618 14.060665 21.790383 2.137000 -9.145800 -26.252400 21.152944 9.923107 -10.032090 1.932901 -9.067062 20.931807 -5.590631 16.396828 6.788095 -0.027700 1.074700 -2.954400 0.395773 3.451215 -4.061634 -2.370542 0.478464 -9.688197 11.207822 -18.025687 2.476478 24.996900 -8.207800 0.410100 -85.203088 25.731193 23.710676 55.869646 -49.329633 -34.649127 0.817405 -1.494399 -38.058615 -7.125000 0.000000 0.000000 65.798091 -33.360465 50.375546 -32.237845 44.077283 -16.252695 -0.468886 1.901827 1.004107 7.125000 0.000000 0.000000 
7.334962 17.387786 41.867435 -178.514117 -17.659805 -169.062720 -6.224363 -1.142452 -20.844073 7.502005 17.940033 51.479761 -1.814322 12.168402 21.369125 2.226000 -9.321700 -26.807000 21.427256 10.496215 -9.749976 1.873535 -9.227869 21.325781 -5.570636 16.349331 6.461610 -0.025100 1.023600 -2.813800 0.431673 3.432889 -4.036132 -2.330299 0.478074 -9.753591 11.267859 -18.299643 2.243482 25.070600 -8.263700 0.256700 -85.525629 25.800685 23.184050 57.016982 -49.679824 -35.747252 0.817093 -1.512319 -38.483135 -7.125000 0.000000 0.000000 65.289477 -33.142722 50.618129 -31.934285 43.896144 -16.073118 -0.474223 1.924237 0.802446 7.125000 0.000000 0.000000 
7.328661 17.359374 41.852069 -178.328857 -17.081149 -169.344131 -6.112599 -1.399647 -21.042385 7.643697 18.108620 52.435936 -1.355575 10.173970 20.880718 2.346300 -9.552900 -27.540800 21.736602 11.108092 -9.486726 1.799855 -9.425308 21.812475 -5.541738 16.261260 6.139175 -0.021100 0.937200 -2.576000 0.473415 3.404000 -4.007560 -2.261771 0.478108 -9.814696 11.328007 -18.565872 2.019502 25.146100 -8.317900 0.107500 -85.845969 25.812432 22.665034 58.006759 -49.969750 -36.699739 0.816235 -1.526497 -38.806010 -7.125000 0.000000 0.000000 64.801614 -32.822909 50.815419 -31.522987 43.630757 -15.810820 -0.478419 1.945268 0.670576 7.125000 0.000000 0.000000 
7.322470 17.327536 41.837366 -178.138066 -16.510259 -169.637335 -6.006649 -1.652590 -21.245690 7.789997 18.272740 53.363084 -0.921077 8.250790 20.334456 2.477000 -9.795900 -28.318400 22.071796 11.745239 -9.249038 1.709929 -9.659068 22.392962 -5.505046 16.135541 5.811576 -0.017000 0.841900 -2.313900 0.520515 3.363723 -3.974727 -2.165804 0.478840 -9.865435 11.388134 -18.835525 1.797787 25.218100 -8.371700 -0.031100 -86.163763 25.753932 22.156349 58.840150 -50.204054 -37.504672 0.814924 -1.537256 -39.023924 -7.125000 0.000000 0.000000 64.334114 -32.387593 50.966104 -31.011617 43.280671 -15.469361 -0.480084 1.964165 0.594535 7.125000 0.000000 0.000000 
7.316611 17.291718 41.823436 -177.951121 -15.953963 -169.939540 -5.914060 -1.904605 -21.459574 7.951775 18.438237 54.271894 -0.535474 6.493869 19.728011 2.604900 -10.026200 -29.061700 22.428805 12.378729 -9.042978 1.600524 -9.928660 23.066624 -5.464015 15.983296 5.442664 -0.014700 0.782000 -2.149200 0.576920 3.297167 -3.932520 -2.023833 0.478330 -9.879750 11.445427 -19.096147 1.575699 25.278500 -8.413600 -0.163900 -86.493459 25.599844 21.643249 59.519073 -50.387403 -38.161820 0.812926 -1.544459 -39.151740 -7.125000 0.000000 0.000000 63.864737 -31.802791 51.088913 -30.406443 42.844797 -15.054021 -0.479154 1.982409 0.544347 7.125000 0.000000 0.000000 
